# xmcd
#
# Track frame offsets:
#	182
#	10707
#	26742
#	39262
#	78142
#	92575
#	104125
#	128175
#	139192
#
# Disc length: 2007 seconds
#
# Revision: 0
# Processed by: cddbd v1.5.2PL0 Copyright (c) Steve Scherf et al.
# Submitted via: EasyCDDAExtractor 11.0.2.1
#
DISCID=6907d509
DTITLE=Gary Sterling - From Me To You
DYEAR=2008
DGENRE=Alternative
TTITLE0=Outback
TTITLE1=Huna Lullaby
TTITLE2=No Games
TTITLE3=Amazing Grace
TTITLE4=Something You Got
TTITLE5=Love and Peace
TTITLE6=Rose Garden
TTITLE7=Barefootin
TTITLE8=You Don't Know What I Like
EXTD=
EXTT0=
EXTT1=
EXTT2=
EXTT3=
EXTT4=
EXTT5=
EXTT6=
EXTT7=
EXTT8=
PLAYORDER=
